<?xml version="1.0" encoding="UTF-8" standalone="no"?>
<!-- Created with Inkscape (http://www.inkscape.org/) -->

<svg
   width="133.9167mm"
   height="66.954659mm"
   viewBox="0 0 133.9167 66.954659"
   version="1.1"
   id="svg1"
   inkscape:version="1.3.2 (091e20e, 2023-11-25, custom)"
   sodipodi:docname="logo1.svg"
   xmlns:inkscape="http://www.inkscape.org/namespaces/inkscape"
   xmlns:sodipodi="http://sodipodi.sourceforge.net/DTD/sodipodi-0.dtd"
   xmlns="http://www.w3.org/2000/svg"
   xmlns:svg="http://www.w3.org/2000/svg">
  <sodipodi:namedview
     id="namedview1"
     pagecolor="#ffffff"
     bordercolor="#000000"
     borderopacity="0.25"
     inkscape:showpageshadow="2"
     inkscape:pageopacity="0.0"
     inkscape:pagecheckerboard="0"
     inkscape:deskcolor="#d1d1d1"
     inkscape:document-units="mm"
     inkscape:zoom="0.69219276"
     inkscape:cx="215.25796"
     inkscape:cy="91.737452"
     inkscape:window-width="1920"
     inkscape:window-height="991"
     inkscape:window-x="-9"
     inkscape:window-y="-9"
     inkscape:window-maximized="1"
     inkscape:current-layer="layer1"
     inkscape:clip-to-page="false" />
  <defs
     id="defs1">
    <rect
       x="650.10791"
       y="208.03455"
       width="229.7048"
       height="73.678902"
       id="rect2" />
    <rect
       x="-93.90448"
       y="50.56395"
       width="580.76306"
       height="196.47707"
       id="rect1" />
    <pattern
       id="EMFhbasepattern"
       patternUnits="userSpaceOnUse"
       width="6"
       height="6"
       x="0"
       y="0" />
  </defs>
  <g
     inkscape:label="Vrstva 1"
     inkscape:groupmode="layer"
     id="layer1"
     transform="translate(-47.525856,-123.85075)">
    <path
       style="fill:#ffffff"
       d="m 47.526126,186.85328 v -3.95202 l 21.299001,0.14273 c 22.415659,0.15021 24.157074,0.0995 26.235783,-0.76361 2.552827,-1.06001 5.1373,-3.44373 6.24093,-5.75618 1.27326,-2.66788 1.2693,-2.60884 1.27098,-18.96148 9.1e-4,-8.90149 -0.0835,-15.45153 -0.20921,-16.22577 -0.55578,-3.42425 -3.107183,-6.73125 -6.508403,-8.43587 -2.342119,-1.17382 -2.088804,-1.16252 -26.149711,-1.1665 l -22.17937,-0.004 v -3.81126 -3.81125 l 22.814579,0.005 c 21.703114,0.004 22.904075,0.0244 24.651617,0.41083 4.771245,1.05512 8.827108,3.74742 11.654668,7.73643 1.82605,2.57612 2.73212,4.78878 3.38148,8.25772 0.40264,2.15094 0.40027,31.69952 -0.003,33.98366 -0.69014,3.91161 -2.31701,7.07863 -5.18978,10.10291 -3.04288,3.20336 -6.437867,5.04582 -10.833731,5.87947 -1.447195,0.27445 -4.954885,0.32124 -24.084996,0.32127 l -22.391107,4e-5 z m 71.192664,-21.19165 0.0625,-25.14368 0.47562,-1.69389 c 0.5626,-2.00367 1.80839,-4.6858 2.97064,-6.39565 2.38267,-3.50526 6.5515,-6.52067 10.62832,-7.68771 1.57294,-0.45028 1.80524,-0.45525 24.45554,-0.52405 12.57713,-0.0382 23.12953,-0.13615 23.44978,-0.21767 l 0.58228,-0.14823 0.0493,4.62822 c 0.14739,13.84541 -0.0168,18.19017 -0.70348,18.61455 -0.106,0.0655 -0.19273,0.29147 -0.19273,0.50212 0,0.54693 -1.23681,2.88305 -2.25018,4.2502 -2.51189,3.38882 -5.58852,5.59948 -9.39531,6.75084 l -1.79976,0.54433 -20.32668,0.11073 -20.32668,0.11074 v 15.72146 15.72147 l -3.87077,-5e-5 -3.87078,-5e-5 z m 46.26867,-14.22124 c 1.34615,-0.1287 2.06991,-0.33073 3.15139,-0.87965 2.25003,-1.14206 4.62826,-3.77481 5.06819,-5.61058 0.0818,-0.34153 0.25297,-0.75253 0.38028,-0.91335 0.15483,-0.19558 0.23279,-2.26381 0.23547,-6.24622 l 0.004,-5.95382 -18.52692,-0.0583 c -20.76322,-0.0653 -19.98377,-0.11495 -22.82137,1.45198 -2.52791,1.39592 -4.66453,3.95422 -5.62186,6.73138 -0.34471,0.99998 -0.42756,1.97978 -0.51582,6.09985 -0.0578,2.69968 -0.0478,5.05789 0.0222,5.24047 0.11438,0.29808 2.00322,0.33061 18.50215,0.31864 10.10612,-0.007 19.16113,-0.0885 20.12224,-0.18039 z"
       id="path1" />
  </g>
</svg>
